<svg width="30" height="26" viewBox="0 0 30 26" fill="none" xmlns="http://www.w3.org/2000/svg">
<path d="M11.6353 26C10.7497 26 9.90037 25.6576 9.27416 25.0481C8.64794 24.4386 8.29614 23.612 8.29614 22.75C8.29614 21.888 8.64794 21.0614 9.27416 20.4519C9.90037 19.8424 10.7497 19.5 11.6353 19.5C12.5209 19.5 13.3702 19.8424 13.9965 20.4519C14.6227 21.0614 14.9745 21.888 14.9745 22.75C14.9745 23.612 14.6227 24.4386 13.9965 25.0481C13.3702 25.6576 12.5209 26 11.6353 26ZM23.3224 26C22.4368 26 21.5875 25.6576 20.9612 25.0481C20.335 24.4386 19.9832 23.612 19.9832 22.75C19.9832 21.888 20.335 21.0614 20.9612 20.4519C21.5875 19.8424 22.4368 19.5 23.3224 19.5C24.208 19.5 25.0573 19.8424 25.6835 20.4519C26.3097 21.0614 26.6616 21.888 26.6616 22.75C26.6616 23.612 26.3097 24.4386 25.6835 25.0481C25.0573 25.6576 24.208 26 23.3224 26ZM1.55436 3.12488C1.13757 3.11179 0.742345 2.94144 0.452266 2.64986C0.162188 2.35827 0 1.96831 0 1.56244C0 1.15656 0.162188 0.766601 0.452266 0.475016C0.742345 0.183431 1.13757 0.0130842 1.55436 0L3.47605 0C4.98202 0 6.28429 1.01725 6.61153 2.44725L8.70352 11.6155C9.03076 13.0455 10.333 14.0628 11.839 14.0628H24.3809L26.7884 4.6865H11.1862C10.7733 4.66816 10.3836 4.49563 10.0981 4.20477C9.81259 3.91392 9.65326 3.52714 9.65326 3.12488C9.65326 2.72261 9.81259 2.33583 10.0981 2.04498C10.3836 1.75412 10.7733 1.58159 11.1862 1.56325H26.7884C27.2765 1.56311 27.7582 1.67128 28.1969 1.87953C28.6356 2.08778 29.0197 2.39064 29.32 2.76507C29.6204 3.13951 29.8291 3.57567 29.9303 4.04039C30.0314 4.50512 30.0224 4.98618 29.9039 5.447L27.4963 14.82C27.3236 15.4967 26.9229 16.0976 26.3582 16.5268C25.7935 16.9559 25.0973 17.1886 24.3809 17.1876H11.839C10.3778 17.1878 8.96017 16.7029 7.82033 15.813C6.68049 14.9232 5.88658 13.6815 5.56971 12.2931L3.47605 3.12488H1.55436Z" fill="#4D933E"/>
</svg>
