<svg width="18" height="17" viewBox="0 0 18 17" fill="none" xmlns="http://www.w3.org/2000/svg">
<path d="M16.5 4.24992V12.7499C16.5 13.1395 16.3533 13.4731 16.0597 13.7508C15.7662 14.0285 15.413 14.1671 15 14.1666H3C2.5875 14.1666 2.2345 14.028 1.941 13.7508C1.6475 13.4736 1.5005 13.14 1.5 12.7499V4.24992C1.5 3.86034 1.647 3.52695 1.941 3.24975C2.235 2.97256 2.588 2.83372 3 2.83325H15C15.4125 2.83325 15.7657 2.97209 16.0597 3.24975C16.3538 3.52742 16.5005 3.86081 16.5 4.24992ZM3 5.66659H15V4.24992H3V5.66659ZM3 8.49992V12.7499H15V8.49992H3Z" fill="white"/>
</svg>
