<svg width="15" height="14" viewBox="0 0 15 14" fill="none" xmlns="http://www.w3.org/2000/svg">
<path d="M6.875 11.0834H8.125V8.648L9.125 9.58133L10 8.75008L7.5 6.41675L5 8.75008L5.89062 9.56675L6.875 8.648V11.0834ZM3.75 12.8334C3.40625 12.8334 3.11208 12.7193 2.8675 12.491C2.62292 12.2627 2.50042 11.988 2.5 11.6667V2.33341C2.5 2.01258 2.6225 1.73803 2.8675 1.50975C3.1125 1.28147 3.40667 1.16714 3.75 1.16675H8.75L12.5 4.66675V11.6667C12.5 11.9876 12.3777 12.2623 12.1331 12.491C11.8885 12.7197 11.5942 12.8338 11.25 12.8334H3.75ZM8.125 5.25008V2.33341H3.75V11.6667H11.25V5.25008H8.125Z" fill="white"/>
</svg>
