<svg width="18" height="17" viewBox="0 0 18 17" fill="none" xmlns="http://www.w3.org/2000/svg">
<path d="M9 0C8.25162 0 7.50361 0.268318 6.93465 0.805683L0.853433 6.54858C-0.284478 7.62331 -0.284478 9.37586 0.853433 10.4506L6.93465 16.1942C8.07228 17.2686 9.92772 17.2686 11.0653 16.1942L17.1466 10.4513C18.2845 9.37652 18.2845 7.62398 17.1466 6.54925L11.0661 0.805683C10.4971 0.268318 9.74838 0 9 0ZM9 0.676614C9.56226 0.676614 10.1249 0.880145 10.5561 1.28736L13.864 4.41229H13.3533C12.7795 4.41229 12.2291 4.62754 11.8233 5.0104V5.01107L9.3825 7.31634C9.16837 7.51858 8.83136 7.51878 8.6168 7.31634L6.176 5.01107C5.77074 4.6279 5.22051 4.41229 4.64671 4.41229H4.13531L7.44465 1.28736C7.87581 0.880145 8.43774 0.676614 9 0.676614ZM3.41398 5.09356H4.64671C5.02939 5.09356 5.3961 5.23689 5.666 5.49208V5.49275L8.1068 7.79802C8.59697 8.2605 9.40261 8.2607 9.89249 7.79802L12.3333 5.49275C12.6041 5.23724 12.9706 5.09356 13.3533 5.09356H14.5853L16.6366 7.03093C17.4989 7.84536 17.4989 9.15514 16.6366 9.96957L14.586 11.9063H13.3533C12.9706 11.9063 12.6041 11.7626 12.3333 11.5071L9.89249 9.20181C9.64755 8.97047 9.3238 8.8552 9 8.85519C8.6762 8.85518 8.35189 8.97057 8.1068 9.20181L5.666 11.5071V11.5078C5.3961 11.7629 5.02939 11.9063 4.64671 11.9063H3.41469L1.36343 9.96891C0.501115 9.15447 0.501115 7.8447 1.36343 7.03026L3.41398 5.09356ZM9 9.5318C9.13784 9.53183 9.27543 9.58237 9.3825 9.68349L11.8233 11.9888V11.9894C12.2291 12.3723 12.7795 12.5875 13.3533 12.5875H13.8647L10.5553 15.7125C9.69348 16.5265 8.30652 16.5265 7.44465 15.7125L4.13601 12.5875H4.64671C5.22051 12.5875 5.77074 12.3719 6.176 11.9888L8.6168 9.68349C8.72408 9.58227 8.86216 9.53178 9 9.5318Z" fill="white"/>
</svg>
