<svg width="14" height="14" viewBox="0 0 14 14" fill="none" xmlns="http://www.w3.org/2000/svg">
<path fill-rule="evenodd" clip-rule="evenodd" d="M6.99971 0.729166C6.26484 0.729166 5.56006 1.02109 5.04043 1.54072C4.5208 2.06036 4.22887 2.76513 4.22887 3.5C4.22887 4.23487 4.5208 4.93964 5.04043 5.45927C5.56006 5.97891 6.26484 6.27083 6.99971 6.27083C7.73458 6.27083 8.43935 5.97891 8.95898 5.45927C9.47861 4.93964 9.77054 4.23487 9.77054 3.5C9.77054 2.76513 9.47861 2.06036 8.95898 1.54072C8.43935 1.02109 7.73458 0.729166 6.99971 0.729166ZM5.10387 3.5C5.10387 2.99719 5.30361 2.51498 5.65915 2.15944C6.01469 1.8039 6.4969 1.60417 6.99971 1.60417C7.50251 1.60417 7.98473 1.8039 8.34026 2.15944C8.6958 2.51498 8.89554 2.99719 8.89554 3.5C8.89554 4.00281 8.6958 4.48502 8.34026 4.84056C7.98473 5.19609 7.50251 5.39583 6.99971 5.39583C6.4969 5.39583 6.01469 5.19609 5.65915 4.84056C5.30361 4.48502 5.10387 4.00281 5.10387 3.5ZM6.99971 7.14583C5.65046 7.14583 4.40679 7.45267 3.48571 7.97067C2.57804 8.48167 1.89554 9.25517 1.89554 10.2083V10.2678C1.89496 10.9457 1.89437 11.7962 2.64046 12.404C3.00737 12.7027 3.52129 12.9156 4.21546 13.0556C4.91079 13.1967 5.81787 13.2708 6.99971 13.2708C8.18154 13.2708 9.08804 13.1967 9.78454 13.0556C10.4787 12.9156 10.992 12.7027 11.3595 12.404C12.1056 11.7962 12.1045 10.9457 12.1039 10.2678V10.2083C12.1039 9.25517 11.4214 8.48167 10.5143 7.97067C9.59262 7.45267 8.34954 7.14583 6.99971 7.14583ZM2.77054 10.2083C2.77054 9.71192 3.13337 9.17292 3.91446 8.73367C4.68212 8.302 5.77179 8.02083 7.00029 8.02083C8.22762 8.02083 9.31729 8.302 10.085 8.73367C10.8666 9.17292 11.2289 9.71192 11.2289 10.2083C11.2289 10.9713 11.2055 11.4007 10.8065 11.725C10.5907 11.9012 10.229 12.0732 9.61071 12.1981C8.99412 12.3229 8.15121 12.3958 6.99971 12.3958C5.84821 12.3958 5.00471 12.3229 4.38871 12.1981C3.77037 12.0732 3.40871 11.9012 3.19287 11.7256C2.79387 11.4007 2.77054 10.9713 2.77054 10.2083Z" fill="white"/>
</svg>
